. 
 
http://www.torrenting.com          :     Once & For all ;)


               www . Torrenting . Com 

(((((((((((((= Enjoy No RAR releases =))))))))))))))))))))


...................................NFO:....................................

.[IMG]http://img849.imageshack.us/img849/3849/20120129115553.jpg[/IMG]


[color=blue][size=5][b]A.Good.Old.Fashioned.Orgy.2011.RC.BDRip.XVID.AC3.HQ.Hive-CM8[/b][/size][/color]


[b] Thx Hive

CM8 Doing It Right The First Time :D


Source: Russian Bluray
Staraja.dobraja.orgija.2011
(had english DTS Audio on it)

Video: 720x384 @bitrate 1700 2pass
Audio: English DTS to AC3 5.1 @448
Sample: Yes, included[/b]
 
http://www.imdb.com/title/tt1231586/


General
Complete name                  : A.Good.Old.Fashioned.Orgy.2011.RC.BDRip.XVID.AC3.HQ.Hive-CM8.avi
Format                         : AVI
Format/Info                    : Audio Video Interleave
File size                      : 1.43 GiB
Duration                       : 1h 34mn
Overall bit rate               : 2 156 Kbps
Writing application            : Nandub v1.0rc2
Writing library                : Nandub build 1853/release

Video
ID                             : 0
Format                         : MPEG-4 Visual
Format profile                 : Advanced Simple@L5
Format settings, BVOP          : 1
Format settings, QPel          : Yes
Format settings, GMC           : No warppoints
Format settings, Matrix        : Default (H.263)
Muxing mode                    : Packed bitstream
Codec ID                       : XVID
Codec ID/Hint                  : XviD
Duration                       : 1h 34mn
Bit rate                       : 1 699 Kbps
Width                          : 720 pixels
Height                         : 384 pixels
Display aspect ratio           : 1.850
Frame rate                     : 24.000 fps
Color space                    : YUV
Chroma subsampling             : 4:2:0
Bit depth                      : 8 bits
Scan type                      : Progressive
Compression mode               : Lossy
Bits/(Pixel*Frame)             : 0.256
Stream size                    : 1.12 GiB (79%)
Writing library                : XviD 1.2.1 (UTC 2008-12-04)

Audio
ID                             : 1
Format                         : AC-3
Format/Info                    : Audio Coding 3
Mode extension                 : CM (complete main)
Codec ID                       : 2000
Duration                       : 1h 34mn
Bit rate mode                  : Constant
Bit rate                       : 448 Kbps
Channel(s)                     : 6 channels
Channel positions              : Front: L C R, Side: L R, LFE
Sampling rate                  : 48.0 KHz
Bit depth                      : 16 bits
Compression mode               : Lossy
Stream size                    : 303 MiB (21%)
Alignment                      : Split accross interleaves
Interleave, duration           : 42 ms (1.00 video frame)
Interleave, preload duration   : 500 ms


Plot:
A group of 30-year-olds who have been friends since
high school attempt to throw an end-of-summer orgy. 


Cast:
Jason Sudeikis   ...     Eric Keppler
Tyler Labine     ...     Mike McCrudden
Leslie Bibb      ...     Kelly
Lake Bell        ...     Alison Lobel 


[img]http://img515.imageshack.us/img515/9066/78264739.png[/img]
[img]http://img708.imageshack.us/img708/1227/fofoa.png[/img]
[img]http://img29.imageshack.us/img29/4704/fofofo.png[/img]
[img]http://img15.imageshack.us/img15/7259/fofofoffofofoofofo.png[/img]
[img]http://img706.imageshack.us/img706/3450/fofofofo.png[/img]
[img]http://img707.imageshack.us/img707/5503/fofofofofo.png[/img]
[img]http://img221.imageshack.us/img221/4838/fofofofofofo.png[/img]
[img]http://img163.imageshack.us/img163/1139/fofofoffofoofofo.png[/img]
[img]http://img560.imageshack.us/img560/4300/fofofoffoofofo.png[/img]



Greetz

ViSiON,SPK,SceneLovers,PRESTiGE,SANTi,3LT0N,YanKeeS,COPYxRIGHT,THC,T0XiC
D2U,LKRG,Feel-Free,FLAWL3SS,WBZ,BHRG,26K,NOVA,SeToNeUp,TED,MAGNET,jtr
Unevano,Rapeseed,SAFC,goldadvance,KaN1vE,Pinnz,Wayne
Mr Hive,and most P2P groups
Great Work Guys :D

LOOKING FOR ANYTHING YOU WANT TO LOOK AND SOUND BETTER

CM8@hushmail.com